<svg width="83" height="18" viewBox="0 0 83 18" fill="none" xmlns="http://www.w3.org/2000/svg">
<path d="M30.2998 15H28.665V4.16309L25.3867 5.36719V3.89062L30.0449 2.1416H30.2998V15Z" fill="#373737"/>
<path d="M39.6787 15.8955H38L43.0361 2H44.7148L39.6787 15.8955Z" fill="#373737"/>
<path d="M50.8105 8.58398L51.4609 2.20312H58.0176V3.70605H52.8408L52.4541 7.19531C53.0811 6.82617 53.793 6.6416 54.5898 6.6416C55.7559 6.6416 56.6816 7.02832 57.3672 7.80176C58.0527 8.56934 58.3955 9.60938 58.3955 10.9219C58.3955 12.2402 58.0381 13.2803 57.3232 14.042C56.6143 14.7979 55.6211 15.1758 54.3438 15.1758C53.2129 15.1758 52.29 14.8623 51.5752 14.2354C50.8604 13.6084 50.4531 12.7412 50.3535 11.6338H51.8916C51.9912 12.3662 52.252 12.9199 52.6738 13.2949C53.0957 13.6641 53.6523 13.8486 54.3438 13.8486C55.0996 13.8486 55.6914 13.5908 56.1191 13.0752C56.5527 12.5596 56.7695 11.8477 56.7695 10.9395C56.7695 10.084 56.5352 9.39844 56.0664 8.88281C55.6035 8.36133 54.9854 8.10059 54.2119 8.10059C53.5029 8.10059 52.9463 8.25586 52.542 8.56641L52.1113 8.91797L50.8105 8.58398Z" fill="#373737"/>
<path d="M7.65685 3.34315L2 9L7.65685 14.6569" stroke="#373737" stroke-width="2"/>
<g opacity="0.6">
<path d="M75.3431 3.34315L81 9L75.3431 14.6569" stroke="#373737" stroke-width="2"/>
</g>
</svg>
